# Blender 4.4.3
# www.blender.org
mtllib StonePlatform_F.mtl
o Stone_F
v 2.022700 2.152000 -1.332320
v 1.096300 1.362000 -0.994400
v 0.744700 2.441000 -1.154190
v 2.202200 0.727000 -1.147690
v 3.008900 3.161000 -1.037889
v 1.652900 3.398000 -0.745030
v 3.297700 1.702000 -1.019459
v 1.740500 3.623000 0.175520
v 2.819100 3.724000 -0.006610
v 3.775200 2.678000 -0.105819
v 3.644200 1.117000 -0.033749
v 3.315800 -0.024000 -0.753879
v 0.905400 -0.010000 -0.997430
v -0.351500 1.535000 -0.988750
v -0.050940 2.570000 -1.138010
v 0.142510 3.390000 -0.760530
v 0.964900 3.622000 -0.086750
v 0.890900 3.445000 0.804500
v 2.173100 3.439000 0.970900
v 3.371000 3.121000 0.919401
v 3.387900 1.760000 0.805401
v 3.395500 0.366000 0.790701
v 2.316700 -0.415000 -1.136220
v 0.195710 -1.641000 -1.013420
v -0.823710 -0.192000 -1.006350
v -0.638660 2.740000 -1.107070
v 0.220620 3.634000 0.122420
v 1.384400 2.543000 1.209500
v 0.692950 2.674000 1.169000
v 2.443700 2.224000 1.333100
v 2.522000 0.890000 1.166500
v 3.644300 -0.096000 0.118461
v 1.906900 -1.458000 -0.999840
v -1.233490 -1.316000 -1.005160
v -1.823300 2.489000 -1.163900
v -0.999720 3.300000 -0.853710
v -0.921280 3.632000 0.018580
v -0.131560 3.537000 0.656400
v -0.094820 2.781000 1.162500
v 0.563530 1.820000 1.026000
v 1.411300 1.366000 1.015100
v 1.489900 -0.042000 1.027200
v 2.588000 -0.467000 1.159701
v 2.872000 -1.083000 -1.021389
v -2.119300 -1.744000 -0.997190
v -2.161100 -0.633000 -0.996740
v -2.001400 0.794000 -0.985040
v -1.729000 3.475000 -0.628720
v -0.829680 3.392000 0.867800
v -0.693260 1.340000 1.044000
v -1.298500 2.697000 1.185000
v -1.705400 3.490000 0.744900
v -2.169200 3.627000 0.007510
v -2.674400 3.433000 -0.797520
v -2.867600 1.519000 -1.055331
v -3.088400 2.531000 -1.193100
v -2.902600 0.762000 -1.078691
v -2.950700 0.026000 -1.061080
v -2.969100 -0.688000 -1.050620
v -2.945600 -1.326000 -1.058770
v -2.868700 -2.079000 -1.068090
v -2.340600 -2.680000 -1.171700
v -1.134200 -2.393000 -1.158390
v -1.622300 -3.405000 -0.752520
v -0.436500 -3.338000 -0.828520
v -2.853200 -3.561000 -0.719190
v -3.232400 -2.691000 -1.081990
v -3.426600 -1.945000 -0.777661
v -3.522800 -0.825000 -0.685571
v -3.542300 0.602000 -0.662341
v -3.543000 1.813000 -0.624111
v -3.668500 2.923000 -0.527181
v -3.173400 3.669000 0.008049
v -2.621500 3.521000 0.682000
v -2.290300 2.906000 1.114500
v -2.980900 3.136000 1.131400
v -3.356200 3.467000 0.742899
v -3.774500 2.972000 0.361009
v -3.702300 2.099000 0.082289
v -3.705200 1.140000 0.003639
v -3.701200 0.421000 0.008749
v -3.704200 -0.301000 -0.003091
v -3.698800 -1.018000 -0.025261
v -3.683400 -1.756000 -0.088051
v -3.755900 -2.877000 -0.377211
v -3.117800 -3.709000 0.357179
v -1.949800 -3.723000 0.091540
v -0.697650 -3.721000 0.092620
v -1.187290 -3.522000 0.731500
v -0.390910 -3.398000 0.875600
v -1.999400 -3.323000 0.943900
v -3.752400 -2.572000 0.680799
v -2.901500 -3.053000 1.283700
v -3.600000 -1.133000 0.687999
v -3.610000 0.328000 0.672099
v -3.663500 1.431000 0.559299
v -3.554000 2.188000 0.743399
v -3.491700 2.871000 0.979599
v -2.956000 2.380000 1.103500
v -3.106100 1.275000 1.076599
v -2.988900 0.396000 1.103000
v -2.956600 -0.376000 1.125600
v -2.942300 -1.109000 1.097900
v -2.970100 -1.877000 1.237900
v -1.994200 -2.245000 1.204300
v -0.850700 -2.619000 1.186800
v 0.563870 -2.735000 1.165800
v 0.258040 -3.563000 0.667500
v 0.735070 -3.714000 -0.060910
v -0.066020 -2.642000 -1.127110
v 0.453170 -3.230000 -0.923200
v 1.062800 -3.434000 0.835400
v 0.213690 -1.155000 1.034400
v -1.121670 -1.483000 1.019400
v -2.146700 -1.001000 1.016400
v -2.123200 0.458000 1.036200
v -2.101300 1.855000 1.038000
v -0.835490 -0.129000 1.048700
v 1.742700 -1.528000 1.028400
v 1.777400 -2.789000 1.120400
v 1.890600 -3.566000 0.650200
v 1.289200 -3.323000 -0.843300
v 2.002600 -3.688000 -0.212480
v 2.661000 -3.116000 1.160000
v 2.978800 -3.672000 0.475110
v 2.690900 -2.111000 1.131300
v 2.658100 -1.322000 1.144800
v 0.367220 0.634000 1.048300
v -0.377250 0.596000 1.045500
v 3.434200 -1.164000 0.738401
v 3.508500 -2.616000 0.783601
v 2.939000 -3.664000 -0.541990
v 3.683700 -3.072000 -0.153059
v 2.167900 -3.248000 -0.898430
v 2.802900 -3.128000 -1.037950
v 3.324800 -3.078000 -0.824869
v 3.638800 -1.970000 -0.025099
v 3.396100 -2.389000 -0.659449
v 3.629400 -0.955000 -0.134409
v 3.397400 -1.422000 -0.672709
v 2.894900 -1.953000 -1.003360
v 3.031900 -2.638000 -1.055420
v 2.424500 -2.505000 -1.104590
v 1.452300 -2.480000 -1.144010
v 0.666790 -2.667000 -1.114330
v 0.796700 1.284000 1.048100
vn -0.0188 0.0689 -0.9974
vn -0.1114 -0.0978 -0.9890
vn -0.0384 0.1270 -0.9912
vn 0.0586 -0.0639 -0.9962
vn 0.4034 0.5107 -0.7593
vn -0.0234 0.7777 -0.6282
vn 0.6218 -0.0365 -0.7823
vn -0.0385 0.9983 0.0433
vn 0.2976 0.9534 -0.0494
vn 0.9633 0.2519 -0.0928
vn 0.9990 -0.0363 -0.0251
vn 0.7083 -0.0011 -0.7059
vn -0.0484 -0.0080 -0.9988
vn -0.0056 -0.0714 -0.9974
vn -0.0029 0.1466 -0.9892
vn 0.0112 0.7463 -0.6655
vn 0.0058 0.9959 -0.0907
vn -0.0107 0.7876 0.6161
vn 0.0591 0.9499 0.3070
vn 0.5246 0.8218 0.2225
vn 0.7449 -0.0435 0.6658
vn 0.5637 0.0822 0.8219
vn 0.7408 0.0077 0.6717
vn 0.0978 -0.0236 -0.9949
vn 0.0055 0.0728 -0.9973
vn -0.0038 0.0069 -1.0000
vn 0.0100 0.2130 -0.9770
vn 0.0157 0.9998 0.0109
vn -0.0769 0.0991 0.9921
vn -0.0106 0.1376 0.9904
vn -0.0081 0.3152 0.9490
vn 0.1162 0.0245 0.9929
vn 0.1391 -0.0380 0.9895
vn 0.9994 0.0037 0.0342
vn 0.0004 0.0222 -0.9998
vn -0.0138 0.0561 -0.9983
vn 0.0137 0.1693 -0.9855
vn -0.0182 0.6818 -0.7313
vn 0.0028 0.9992 -0.0411
vn -0.0023 0.8667 0.4988
vn 0.0223 0.2396 0.9706
vn -0.0175 -0.0685 0.9975
vn -0.0625 -0.0617 0.9961
vn -0.0574 -0.0047 0.9983
vn 0.1605 -0.0072 0.9870
vn 0.2978 -0.0164 -0.9545
vn 0.0093 0.0887 -0.9960
vn 0.0375 0.0018 -0.9993
vn 0.0443 -0.0283 -0.9986
vn 0.0201 0.8294 -0.5583
vn 0.0010 0.7272 0.6865
vn 0.0029 -0.0375 0.9993
vn -0.0272 0.1870 0.9820
vn -0.0224 0.5073 0.8615
vn 0.0289 0.9779 0.2068
vn 0.0160 0.9994 -0.0321
vn -0.1398 0.7449 -0.6524
vn -0.2760 -0.0646 -0.9590
vn -0.3978 0.1168 -0.9100
vn -0.2378 0.0166 -0.9712
vn -0.2473 -0.0042 -0.9689
vn -0.2549 -0.0023 -0.9670
vn -0.2308 0.0031 -0.9730
vn -0.1796 0.1039 -0.9782
vn -0.0112 -0.1487 -0.9888
vn -0.0027 -0.0845 -0.9964
vn 0.0445 -0.7321 -0.6797
vn -0.0198 -0.6831 -0.7300
vn -0.2368 -0.7723 -0.5895
vn -0.4481 -0.1255 -0.8851
vn -0.7168 0.0671 -0.6940
vn -0.8042 -0.0050 -0.5944
vn -0.8159 0.0131 -0.5780
vn -0.8536 -0.0539 -0.5181
vn -0.8446 0.3141 -0.4336
vn -0.3796 0.9208 -0.0895
vn 0.0361 0.8664 0.4980
vn 0.0350 0.2690 0.9625
vn -0.1048 0.3849 0.9170
vn -0.4816 0.7275 0.4887
vn -0.9566 0.2494 0.1511
vn -0.9995 -0.0315 -0.0013
vn -0.9977 -0.0042 -0.0671
vn -0.9988 -0.0005 -0.0480
vn -0.9985 -0.0027 -0.0546
vn -0.9980 -0.0105 -0.0630
vn -0.9889 0.0423 -0.1427
vn -0.9057 -0.2808 -0.3176
vn -0.4189 -0.8727 0.2510
vn 0.0077 -0.9982 0.0588
vn 0.0008 -0.9997 0.0248
vn -0.0037 -0.7921 0.6103
vn -0.0012 -0.6810 0.7322
vn 0.0511 -0.6454 0.7621
vn -0.8888 -0.1522 0.4324
vn -0.2211 -0.3586 0.9069
vn -0.9940 0.0142 0.1085
vn -0.8627 -0.0067 0.5057
vn -0.9206 0.0035 0.3905
vn -0.8059 -0.0724 0.5877
vn -0.6380 0.0920 0.7645
vn -0.1938 -0.0667 0.9788
vn -0.3496 -0.0040 0.9369
vn -0.2618 0.0057 0.9651
vn -0.5608 0.0489 0.8265
vn -0.2411 -0.0099 0.9704
vn -0.2308 0.0715 0.9704
vn -0.2659 0.1079 0.9579
vn 0.0859 0.0102 0.9962
vn -0.0032 -0.1675 0.9859
vn 0.0163 -0.2353 0.9718
vn 0.0113 -0.8307 0.5566
vn 0.0014 -0.9929 -0.1187
vn -0.0069 -0.1754 -0.9845
vn 0.0006 -0.5904 -0.8071
vn 0.0096 -0.7164 0.6976
vn 0.0029 0.0395 0.9992
vn 0.0154 0.0833 0.9964
vn 0.0636 0.0589 0.9962
vn 0.0403 0.0063 0.9992
vn -0.0020 -0.0525 0.9986
vn -0.0055 -0.0068 1.0000
vn -0.0520 0.0236 0.9984
vn -0.0285 -0.2229 0.9744
vn -0.0376 -0.8507 0.5243
vn 0.0029 -0.6441 -0.7649
vn -0.0337 -0.9729 -0.2287
vn 0.1658 -0.3902 0.9057
vn 0.3740 -0.8631 0.3394
vn 0.1827 0.0253 0.9828
vn 0.1786 -0.0060 0.9839
vn 0.0081 0.0006 1.0000
vn -0.0018 0.0036 1.0000
vn 0.7782 0.0113 0.6279
vn 0.7758 -0.1585 0.6107
vn 0.2806 -0.8443 -0.4566
vn 0.9308 -0.3398 -0.1348
vn -0.0602 -0.5568 -0.8284
vn 0.1284 -0.3737 -0.9186
vn 0.6603 -0.2866 -0.6941
vn 0.9954 0.0272 -0.0919
vn 0.7981 0.0639 -0.5992
vn 0.9889 0.0084 -0.1483
vn 0.7720 -0.0071 -0.6355
vn 0.3360 0.0658 -0.9396
vn 0.4058 0.0213 -0.9137
vn 0.0223 -0.0349 -0.9991
vn 0.0048 -0.1051 -0.9944
vn 0.0143 -0.1690 -0.9855
vn 0.0223 0.0158 0.9996
vt 0.274910 0.911950
vt 0.288300 0.908740
vt 0.286300 0.921460
vt 0.280420 0.896630
vt 0.259710 0.917050
vt 0.272140 0.926430
vt 0.264310 0.900830
vt 0.091000 0.664630
vt 0.100940 0.660810
vt 0.104610 0.672650
vt 0.094680 0.679970
vt 0.033370 0.280200
vt 0.045670 0.269800
vt 0.046130 0.284490
vt 0.734530 0.118700
vt 0.742370 0.104650
vt 0.749120 0.119940
vt 0.729360 0.101820
vt 0.734010 0.086790
vt 0.273000 0.883290
vt 0.297300 0.895870
vt 0.302020 0.917960
vt 0.293670 0.926870
vt 0.287430 0.934140
vt 0.083230 0.649360
vt 0.094380 0.654250
vt 0.102900 0.649080
vt 0.111040 0.661280
vt 0.116310 0.673830
vt 0.032770 0.266300
vt 0.265970 0.945640
vt 0.280780 0.941790
vt 0.278300 0.954990
vt 0.265140 0.933340
vt 0.252740 0.937030
vt 0.285150 0.884510
vt 0.312880 0.883060
vt 0.315710 0.902950
vt 0.298720 0.931620
vt 0.092760 0.645630
vt 0.911910 0.219760
vt 0.915910 0.208820
vt 0.919470 0.217300
vt 0.901640 0.210730
vt 0.900550 0.224880
vt 0.888590 0.215990
vt 0.890210 0.231290
vt 0.892050 0.246980
vt 0.901400 0.239950
vt 0.252680 0.927380
vt 0.723870 0.089130
vt 0.294660 0.876090
vt 0.325640 0.893720
vt 0.311990 0.935200
vt 0.299450 0.939130
vt 0.076470 0.638260
vt 0.085950 0.634550
vt 0.096320 0.639410
vt 0.928160 0.214990
vt 0.927160 0.206290
vt 0.922010 0.226700
vt 0.913110 0.232990
vt 0.914190 0.248940
vt 0.902540 0.255310
vt 0.282980 0.874890
vt 0.336790 0.893970
vt 0.331480 0.905410
vt 0.322510 0.918990
vt 0.305880 0.944650
vt 0.075210 0.629650
vt 0.094840 0.631300
vt 0.935350 0.207000
vt 0.936800 0.230320
vt 0.941820 0.214240
vt 0.944960 0.204630
vt 0.089250 0.622990
vt 0.079550 0.621930
vt 0.068700 0.620910
vt 0.315670 0.949110
vt 0.327520 0.930790
vt 0.324550 0.942150
vt 0.331790 0.923320
vt 0.336060 0.916140
vt 0.339930 0.909020
vt 0.342990 0.902450
vt 0.346100 0.894450
vt 0.343880 0.885660
vt 0.330220 0.882330
vt 0.340310 0.874620
vt 0.328000 0.869180
vt 0.353540 0.879400
vt 0.352930 0.890150
vt 0.351000 0.898670
vt 0.608620 0.923570
vt 0.617500 0.919800
vt 0.620290 0.928790
vt 0.611140 0.916330
vt 0.604310 0.911980
vt 0.594560 0.915580
vt 0.597440 0.907230
vt 0.590170 0.902700
vt 0.582640 0.908770
vt 0.579680 0.897730
vt 0.570920 0.903880
vt 0.055020 0.159780
vt 0.065000 0.164110
vt 0.054480 0.171810
vt 0.064710 0.175870
vt 0.074530 0.611710
vt 0.084030 0.613980
vt 0.952620 0.210480
vt 0.955160 0.202970
vt 0.960060 0.206920
vt 0.357110 0.099330
vt 0.361940 0.092590
vt 0.364950 0.099000
vt 0.080900 0.606230
vt 0.820560 0.920740
vt 0.831320 0.923790
vt 0.824380 0.928760
vt 0.830070 0.913730
vt 0.183780 0.079700
vt 0.192090 0.085930
vt 0.183520 0.091330
vt 0.175330 0.081730
vt 0.176780 0.071340
vt 0.167040 0.070770
vt 0.172110 0.064640
vt 0.167280 0.058030
vt 0.157480 0.057710
vt 0.162380 0.051540
vt 0.156960 0.045120
vt 0.149270 0.047980
vt 0.146970 0.036610
vt 0.141520 0.043140
vt 0.045080 0.363990
vt 0.042120 0.375010
vt 0.035030 0.363620
vt 0.029820 0.376950
vt 0.584960 0.886630
vt 0.597130 0.880020
vt 0.595470 0.893470
vt 0.588690 0.873170
vt 0.601780 0.866600
vt 0.592110 0.860130
vt 0.850260 0.524460
vt 0.857790 0.519020
vt 0.863790 0.528770
vt 0.849820 0.514300
vt 0.867540 0.518760
vt 0.877230 0.530150
vt 0.600860 0.053880
vt 0.614380 0.048920
vt 0.609010 0.063160
vt 0.621300 0.059740
vt 0.878760 0.517240
vt 0.158760 0.032520
vt 0.168200 0.045850
vt 0.177620 0.059480
vt 0.183820 0.070420
vt 0.190450 0.076260
vt 0.197090 0.081060
vt 0.830780 0.930690
vt 0.824940 0.932810
vt 0.960810 0.215450
vt 0.966060 0.209130
vt 0.251580 0.072000
vt 0.249670 0.064030
vt 0.257340 0.066390
vt 0.245140 0.078090
vt 0.239460 0.071460
vt 0.233590 0.083060
vt 0.230120 0.075180
vt 0.218990 0.090890
vt 0.222240 0.079020
vt 0.214990 0.083080
vt 0.205410 0.100050
vt 0.207040 0.086710
vt 0.194920 0.092330
vt 0.966990 0.263360
vt 0.967890 0.276690
vt 0.956520 0.268860
vt 0.957880 0.280910
vt 0.944180 0.274680
vt 0.948880 0.284240
vt 0.939870 0.284010
vt 0.928440 0.277970
vt 0.932660 0.286730
vt 0.841900 0.514900
vt 0.605500 0.850690
vt 0.610720 0.858290
vt 0.320710 0.874310
vt 0.594100 0.850160
vt 0.318470 0.865680
vt 0.739240 0.028730
vt 0.744730 0.038580
vt 0.735360 0.037930
vt 0.923560 0.286450
vt 0.930080 0.259670
vt 0.945520 0.261470
vt 0.956360 0.254610
vt 0.965510 0.254720
vt 0.964670 0.246460
vt 0.954080 0.238230
vt 0.963940 0.237730
vt 0.964020 0.227660
vt 0.951900 0.222550
vt 0.940450 0.246660
vt 0.913420 0.266020
vt 0.914850 0.280280
vt 0.894880 0.867900
vt 0.896200 0.877510
vt 0.886230 0.874980
vt 0.753560 0.034550
vt 0.598310 0.841580
vt 0.608570 0.836540
vt 0.616610 0.840740
vt 0.887580 0.885270
vt 0.896860 0.890020
vt 0.619190 0.828540
vt 0.903650 0.273940
vt 0.905410 0.285210
vt 0.902940 0.265030
vt 0.925880 0.239770
vt 0.934290 0.239140
vt 0.893700 0.264230
vt 0.894920 0.280680
vt 0.884700 0.894510
vt 0.608600 0.825300
vt 0.224530 0.918580
vt 0.214900 0.910730
vt 0.225840 0.906720
vt 0.058750 0.377700
vt 0.067110 0.385480
vt 0.056390 0.390050
vt 0.600770 0.831890
vt 0.601320 0.824480
vt 0.064220 0.393450
vt 0.069680 0.392170
vt 0.235550 0.914700
vt 0.716100 0.056170
vt 0.724700 0.061600
vt 0.718900 0.068410
vt 0.724310 0.053530
vt 0.238490 0.927170
vt 0.245850 0.919880
vt 0.728080 0.072030
vt 0.723380 0.079060
vt 0.732210 0.064500
vt 0.729590 0.057140
vt 0.289390 0.858360
vt 0.288670 0.852400
vt 0.294230 0.854600
vt 0.301240 0.856660
vt 0.294850 0.862840
vt 0.310490 0.860430
vt 0.304540 0.868110
vt 0.287230 0.865990
vt 0.735440 0.073830
vt 0.313430 0.870280
vt 0.920150 0.233060
s 1
usemtl StonePlatform_Base
f 1/1/1 2/2/2 3/3/3
f 4/4/4 2/2/2 1/1/1
f 5/5/5 1/1/1 6/6/6
f 1/1/1 3/3/3 6/6/6
f 1/1/1 7/7/7 4/4/4
f 7/7/7 1/1/1 5/5/5
f 6/8/6 8/9/8 9/10/9
f 5/11/5 6/8/6 9/10/9
f 9/12/9 10/13/10 5/14/5
f 10/15/10 7/16/7 5/17/5
f 11/18/11 7/16/7 10/15/10
f 12/19/12 7/16/7 11/18/11
f 7/7/7 12/20/12 4/4/4
f 4/4/4 13/21/13 2/2/2
f 2/2/2 13/21/13 14/22/14
f 2/2/2 14/22/14 3/3/3
f 3/3/3 14/22/14 15/23/15
f 6/6/6 3/3/3 16/24/16
f 3/3/3 15/23/15 16/24/16
f 6/8/6 16/25/16 17/26/17
f 6/8/6 17/26/17 8/9/8
f 8/9/8 17/26/17 18/27/18
f 8/9/8 18/27/18 19/28/19
f 9/10/9 8/9/8 19/28/19
f 19/28/19 20/29/20 9/10/9
f 20/30/20 10/13/10 9/12/9
f 21/31/21 10/32/10 20/33/22
f 11/34/11 10/32/10 21/31/21
f 22/35/23 11/34/11 21/31/21
f 23/36/24 13/21/13 4/4/4
f 4/4/4 12/20/12 23/36/24
f 13/21/13 24/37/25 25/38/26
f 13/21/13 25/38/26 14/22/14
f 15/23/15 14/22/14 26/39/27
f 15/23/15 26/39/27 16/24/16
f 16/25/16 27/40/28 17/26/17
f 17/26/17 27/40/28 18/27/18
f 28/41/29 18/42/18 29/43/30
f 19/44/31 18/42/18 28/41/29
f 30/45/32 19/44/31 28/41/29
f 20/46/22 19/44/31 30/45/32
f 21/47/21 20/46/22 30/45/32
f 22/48/23 21/47/21 31/49/33
f 31/49/33 21/47/21 30/45/32
f 32/50/34 11/34/11 22/35/23
f 32/51/34 12/19/12 11/18/11
f 33/52/35 24/37/25 13/21/13
f 23/36/24 33/52/35 13/21/13
f 24/37/25 34/53/36 25/38/26
f 26/39/27 14/22/14 35/54/37
f 16/24/16 26/39/27 36/55/38
f 26/39/27 35/54/37 36/55/38
f 16/25/16 36/56/38 37/57/39
f 16/25/16 37/57/39 27/40/28
f 27/40/28 37/57/39 38/58/40
f 27/40/28 38/58/40 18/27/18
f 29/43/30 18/42/18 39/59/41
f 18/42/18 38/60/40 39/59/41
f 29/43/30 39/59/41 40/61/42
f 28/41/29 29/43/30 40/61/42
f 41/62/43 28/41/29 40/61/42
f 30/45/32 28/41/29 41/62/43
f 31/49/33 30/45/32 41/62/43
f 31/49/33 41/62/43 42/63/44
f 43/64/45 31/49/33 42/63/44
f 43/64/45 22/48/23 31/49/33
f 44/65/46 33/52/35 23/36/24
f 23/36/24 12/20/12 44/65/46
f 34/53/36 45/66/47 46/67/48
f 34/53/36 46/67/48 25/38/26
f 25/38/26 46/67/48 47/68/49
f 25/38/26 47/68/49 14/22/14
f 14/22/14 47/68/49 35/54/37
f 36/55/38 35/54/37 48/69/50
f 36/56/38 48/70/50 37/57/39
f 37/57/39 49/71/51 38/58/40
f 38/60/40 49/72/51 39/59/41
f 40/61/42 39/59/41 50/73/52
f 39/59/41 51/74/53 50/73/52
f 39/59/41 49/72/51 51/74/53
f 49/72/51 52/75/54 51/74/53
f 37/57/39 52/76/55 49/71/51
f 37/57/39 53/77/56 52/76/55
f 48/70/50 53/77/56 37/57/39
f 48/70/50 54/78/57 53/77/56
f 48/69/50 35/54/37 54/79/57
f 35/54/37 55/80/58 56/81/59
f 47/68/49 55/80/58 35/54/37
f 35/54/37 56/81/59 54/79/57
f 47/68/49 57/82/60 55/80/58
f 47/68/49 58/83/61 57/82/60
f 46/67/48 58/83/61 47/68/49
f 46/67/48 59/84/62 58/83/61
f 46/67/48 60/85/63 59/84/62
f 45/66/47 60/85/63 46/67/48
f 45/66/47 61/86/64 60/85/63
f 45/66/47 62/87/65 61/86/64
f 63/88/66 62/87/65 45/66/47
f 34/53/36 63/88/66 45/66/47
f 24/37/25 63/88/66 34/53/36
f 62/87/65 63/88/66 64/89/67
f 64/89/67 63/88/66 65/90/68
f 62/87/65 66/91/69 67/92/70
f 61/86/64 62/87/65 67/92/70
f 66/91/69 62/87/65 64/89/67
f 68/93/71 61/86/64 67/92/70
f 60/85/63 61/86/64 68/93/71
f 69/94/72 60/95/63 68/96/71
f 59/97/62 60/95/63 69/94/72
f 58/98/61 59/97/62 69/94/72
f 70/99/73 58/98/61 69/94/72
f 57/100/60 58/98/61 70/99/73
f 55/101/58 57/100/60 70/99/73
f 71/102/74 55/101/58 70/99/73
f 56/103/59 55/101/58 71/102/74
f 72/104/75 56/103/59 71/102/74
f 56/105/59 72/106/75 54/107/57
f 54/107/57 72/106/75 73/108/76
f 54/78/57 73/109/76 53/77/56
f 53/77/56 73/109/76 74/110/77
f 53/77/56 74/110/77 52/76/55
f 51/74/53 52/75/54 75/111/78
f 52/75/54 74/112/77 75/111/78
f 75/111/78 74/112/77 76/113/79
f 74/114/77 77/115/80 76/116/79
f 73/109/76 77/117/80 74/110/77
f 73/118/76 78/119/81 77/120/80
f 72/121/75 78/119/81 73/118/76
f 79/122/82 78/123/81 72/124/75
f 71/125/74 79/122/82 72/124/75
f 80/126/83 79/122/82 71/125/74
f 70/127/73 80/126/83 71/125/74
f 81/128/84 80/126/83 70/127/73
f 82/129/85 81/128/84 70/127/73
f 69/130/72 82/129/85 70/127/73
f 83/131/86 82/129/85 69/130/72
f 84/132/87 83/131/86 69/130/72
f 68/133/71 84/132/87 69/130/72
f 85/134/88 84/132/87 68/133/71
f 67/135/70 85/134/88 68/133/71
f 67/136/70 66/137/69 85/138/88
f 66/137/69 86/139/89 85/138/88
f 66/140/69 87/141/90 86/142/89
f 64/143/67 87/141/90 66/140/69
f 64/143/67 88/144/91 87/141/90
f 65/145/68 88/144/91 64/143/67
f 88/146/91 89/147/92 87/148/90
f 88/146/91 90/149/93 89/147/92
f 87/148/90 91/150/94 86/151/89
f 87/148/90 89/147/92 91/150/94
f 85/152/88 86/153/89 92/154/95
f 86/153/89 93/155/96 92/154/95
f 86/151/89 91/150/94 93/156/96
f 85/134/88 92/157/95 84/132/87
f 92/157/95 94/158/97 84/132/87
f 84/132/87 94/158/97 83/131/86
f 83/131/86 94/158/97 82/129/85
f 94/158/97 95/159/98 82/129/85
f 82/129/85 95/159/98 81/128/84
f 81/128/84 95/159/98 80/126/83
f 95/159/98 96/160/99 80/126/83
f 80/126/83 96/160/99 79/122/82
f 96/160/99 97/161/100 79/122/82
f 79/122/82 97/161/100 78/123/81
f 97/161/100 98/162/101 78/123/81
f 78/119/81 98/163/101 77/120/80
f 77/120/80 98/163/101 76/164/79
f 99/165/102 76/113/79 98/166/101
f 75/111/78 76/113/79 99/165/102
f 97/167/100 99/168/102 98/169/101
f 96/170/99 100/171/103 97/167/100
f 100/171/103 99/168/102 97/167/100
f 95/172/98 100/171/103 96/170/99
f 101/173/104 100/171/103 95/172/98
f 94/174/105 102/175/106 95/172/98
f 102/175/106 101/173/104 95/172/98
f 103/176/107 102/175/106 94/174/105
f 92/177/95 104/178/108 94/174/105
f 104/178/108 103/176/107 94/174/105
f 93/179/96 104/178/108 92/177/95
f 104/180/108 93/181/96 105/182/109
f 93/181/96 91/183/94 105/182/109
f 105/182/109 91/183/94 106/184/110
f 91/183/94 89/185/92 106/184/110
f 89/185/92 90/186/93 106/184/110
f 106/184/110 90/186/93 107/187/111
f 90/186/93 108/188/112 107/187/111
f 88/146/91 108/189/112 90/149/93
f 109/190/113 108/191/112 88/144/91
f 65/145/68 109/190/113 88/144/91
f 63/88/66 110/192/114 65/90/68
f 111/193/115 109/190/113 65/145/68
f 65/90/68 110/192/114 111/194/115
f 109/195/113 112/196/116 108/197/112
f 108/188/112 112/198/116 107/187/111
f 107/187/111 113/199/117 106/184/110
f 113/199/117 114/200/118 106/184/110
f 106/184/110 114/200/118 105/182/109
f 105/182/109 115/201/119 104/180/108
f 114/200/118 115/201/119 105/182/109
f 115/201/119 103/202/107 104/180/108
f 115/201/119 102/203/106 103/202/107
f 116/204/120 101/205/104 102/203/106
f 115/201/119 116/204/120 102/203/106
f 116/204/120 100/206/103 101/205/104
f 116/204/120 117/207/121 100/206/103
f 117/207/121 99/165/102 100/206/103
f 117/207/121 75/111/78 99/165/102
f 51/74/53 75/111/78 117/207/121
f 50/73/52 51/74/53 117/207/121
f 50/73/52 117/207/121 116/204/120
f 118/208/122 116/204/120 115/201/119
f 118/208/122 50/73/52 116/204/120
f 114/200/118 118/208/122 115/201/119
f 113/199/117 118/208/122 114/200/118
f 119/209/123 113/199/117 107/187/111
f 107/187/111 112/198/116 120/210/124
f 120/210/124 119/209/123 107/187/111
f 112/211/116 121/212/125 120/213/124
f 109/195/113 121/214/125 112/196/116
f 122/215/126 109/190/113 111/193/115
f 123/216/127 121/217/125 109/190/113
f 122/215/126 123/216/127 109/190/113
f 120/213/124 121/212/125 124/218/128
f 121/212/125 125/219/129 124/218/128
f 123/216/127 125/220/129 121/217/125
f 126/221/130 119/209/123 120/210/124
f 124/222/128 126/221/130 120/210/124
f 126/221/130 127/223/131 119/209/123
f 119/209/123 42/63/44 113/199/117
f 43/64/45 42/63/44 119/209/123
f 127/223/131 43/64/45 119/209/123
f 113/199/117 128/224/132 118/208/122
f 42/63/44 128/224/132 113/199/117
f 128/224/132 129/225/133 118/208/122
f 129/225/133 50/73/52 118/208/122
f 129/225/133 128/224/132 50/73/52
f 40/61/42 50/73/52 128/224/132
f 127/223/131 130/226/134 43/64/45
f 130/226/134 22/48/23 43/64/45
f 126/221/130 130/226/134 127/223/131
f 124/222/128 131/227/135 126/221/130
f 131/227/135 130/226/134 126/221/130
f 125/219/129 131/228/135 124/218/128
f 132/229/136 125/220/129 123/216/127
f 131/230/135 125/231/129 133/232/137
f 125/233/129 132/234/136 133/235/137
f 134/236/138 123/216/127 122/215/126
f 134/236/138 132/229/136 123/216/127
f 135/237/139 132/229/136 134/236/138
f 133/235/137 132/234/136 136/238/140
f 132/234/136 135/239/139 136/238/140
f 133/232/137 137/240/141 131/230/135
f 133/241/137 138/242/142 137/243/141
f 136/244/140 138/242/142 133/241/137
f 131/230/135 137/240/141 130/245/134
f 137/240/141 139/246/143 130/245/134
f 130/245/134 32/50/34 22/35/23
f 139/246/143 32/50/34 130/245/134
f 137/243/141 140/247/144 139/248/143
f 139/248/143 12/19/12 32/51/34
f 140/247/144 12/19/12 139/248/143
f 138/242/142 140/247/144 137/243/141
f 141/249/145 138/242/142 142/250/146
f 138/242/142 136/244/140 142/250/146
f 140/247/144 138/242/142 141/249/145
f 142/251/146 136/252/140 135/253/139
f 134/254/138 143/255/147 135/253/139
f 143/255/147 142/251/146 135/253/139
f 122/256/126 144/257/148 134/254/138
f 144/257/148 143/255/147 134/254/138
f 143/255/147 144/257/148 33/52/35
f 141/258/145 143/255/147 33/52/35
f 142/251/146 143/255/147 141/258/145
f 141/258/145 33/52/35 44/65/46
f 44/259/46 140/247/144 141/249/145
f 12/19/12 140/247/144 44/259/46
f 33/52/35 144/257/148 24/37/25
f 145/260/149 144/257/148 122/256/126
f 144/257/148 145/260/149 24/37/25
f 111/194/115 145/260/149 122/256/126
f 110/192/114 145/260/149 111/194/115
f 145/260/149 110/192/114 24/37/25
f 110/192/114 63/88/66 24/37/25
f 42/63/44 41/62/43 128/224/132
f 41/62/43 146/261/150 128/224/132
f 146/261/150 40/61/42 128/224/132
f 41/62/43 40/61/42 146/261/150
